<!-- Generated by IcoMoon.io -->
<svg version="1.1" xmlns="http://www.w3.org/2000/svg" width="41" height="56" viewBox="0 0 41 56">
<title>additional</title>
<path d="M13.188 33.563c0-0.447-0.361-0.81-0.806-0.81h-7.815c-0.445 0-0.806 0.363-0.806 0.81v5.237c0 0.447 0.361 0.81 0.806 0.81h7.815c0.445 0 0.806-0.363 0.806-0.81v-5.237zM11.576 37.99h-6.204v-3.617h6.204v3.617z"></path>
<path d="M32.355 37.865h4.342c0.445 0 0.806-0.363 0.806-0.81s-0.361-0.81-0.806-0.81h-4.342c-0.445 0-0.806 0.363-0.806 0.81s0.361 0.81 0.806 0.81z"></path>
<path d="M32.355 34.373h4.342c0.445 0 0.806-0.363 0.806-0.81s-0.361-0.81-0.806-0.81h-4.342c-0.445 0-0.806 0.363-0.806 0.81s0.361 0.81 0.806 0.81z"></path>
<path d="M40.17 42.301c-0.445 0-0.806 0.363-0.806 0.81v10.42c0 0.155-0.125 0.281-0.28 0.281h-36.906c-0.154 0-0.28-0.126-0.28-0.281v-17.928c0-0.447-0.361-0.81-0.806-0.81s-0.806 0.363-0.806 0.81v17.928c0 1.048 0.848 1.901 1.891 1.901h36.906c1.043 0 1.891-0.853 1.891-1.901v-10.42c0-0.447-0.361-0.81-0.806-0.81z"></path>
<path d="M39.085 27.625h-13.305v-4.109c4.163-1.955 7.056-6.205 7.056-11.121 0-6.764-5.474-12.267-12.203-12.267-2.335 0-4.605 0.665-6.565 1.924-1.906 1.225-3.435 2.952-4.421 4.995-0.194 0.403-0.027 0.887 0.373 1.083s0.883 0.027 1.077-0.375c1.788-3.705 5.442-6.006 9.535-6.006 5.84 0 10.592 4.776 10.592 10.647s-4.751 10.647-10.592 10.647c-5.84 0-10.592-4.776-10.592-10.647 0-0.414 0.024-0.83 0.071-1.239 0.051-0.445-0.266-0.847-0.708-0.898s-0.842 0.267-0.893 0.711c-0.054 0.47-0.082 0.95-0.082 1.426 0 4.916 2.892 9.165 7.056 11.121v4.109h-13.305c-1.043 0-1.891 0.853-1.891 1.901v2.278c0 0.447 0.361 0.81 0.806 0.81s0.806-0.363 0.806-0.81v-2.278c0-0.155 0.125-0.281 0.28-0.281h10.489l7.357 8.453c0.153 0.176 0.374 0.277 0.607 0.277s0.453-0.101 0.607-0.277l7.357-8.453h10.489c0.154 0 0.28 0.126 0.28 0.281v9.783c0 0.447 0.361 0.81 0.806 0.81s0.806-0.363 0.806-0.81v-9.783c-0-1.049-0.849-1.902-1.891-1.902zM20.632 35.934l-5.822-6.689h1.48c0.445 0 0.806-0.363 0.806-0.81v-4.298c1.12 0.342 2.307 0.526 3.536 0.526s2.416-0.184 3.536-0.526v4.298c0 0.447 0.361 0.81 0.806 0.81h1.48l-5.822 6.689z"></path>
<path d="M4.566 47.576h2.171c0.445 0 0.806-0.363 0.806-0.81s-0.361-0.81-0.806-0.81h-2.171c-0.445 0-0.806 0.363-0.806 0.81s0.361 0.81 0.806 0.81z"></path>
<path d="M12.382 45.956h-2.171c-0.445 0-0.806 0.363-0.806 0.81s0.361 0.81 0.806 0.81h2.171c0.445 0 0.806-0.363 0.806-0.81s-0.361-0.81-0.806-0.81z"></path>
<path d="M18.026 47.576c0.445 0 0.806-0.363 0.806-0.81s-0.361-0.81-0.806-0.81h-2.171c-0.445 0-0.806 0.363-0.806 0.81s0.361 0.81 0.806 0.81h2.171z"></path>
<path d="M23.671 47.576c0.445 0 0.806-0.363 0.806-0.81s-0.361-0.81-0.806-0.81h-2.171c-0.445 0-0.806 0.363-0.806 0.81s0.361 0.81 0.806 0.81h2.171z"></path>
<path d="M4.566 51.941h8.684c0.445 0 0.806-0.363 0.806-0.81s-0.361-0.81-0.806-0.81h-8.684c-0.445 0-0.806 0.363-0.806 0.81s0.361 0.81 0.806 0.81z"></path>
<path d="M27.207 48.949c0 1.65 1.336 2.992 2.977 2.992 0.856 0 1.627-0.365 2.171-0.948 0.543 0.583 1.315 0.948 2.171 0.948 1.641 0 2.977-1.342 2.977-2.992s-1.335-2.992-2.977-2.992c-0.856 0-1.627 0.365-2.171 0.948-0.544-0.583-1.315-0.948-2.171-0.948-1.641 0-2.977 1.342-2.977 2.992zM34.526 47.576c0.753 0 1.365 0.616 1.365 1.372s-0.612 1.372-1.365 1.372-1.365-0.616-1.365-1.372c0-0.757 0.612-1.372 1.365-1.372zM31.549 48.949c0 0.756-0.612 1.372-1.365 1.372s-1.365-0.616-1.365-1.372c0-0.757 0.612-1.372 1.365-1.372s1.365 0.616 1.365 1.372z"></path>
<path d="M17.962 16.635c-0.372-0.245-0.872-0.14-1.116 0.234s-0.139 0.877 0.233 1.121c1.042 0.685 1.753 0.888 2.673 0.939v0.893c0 0.447 0.361 0.81 0.806 0.81s0.806-0.363 0.806-0.81v-0.957c1.827-0.357 2.894-1.87 3.13-3.283 0.303-1.814-0.641-3.391-2.405-4.018-0.238-0.085-0.482-0.174-0.725-0.266v-3.886c0.615 0.146 0.981 0.458 1.013 0.486 0.327 0.298 0.833 0.276 1.133-0.051 0.302-0.329 0.281-0.841-0.046-1.145-0.046-0.043-0.825-0.748-2.1-0.938v-0.798c0-0.447-0.361-0.81-0.806-0.81s-0.806 0.363-0.806 0.81v0.86c-0.123 0.027-0.247 0.058-0.375 0.097-1.162 0.352-2.030 1.351-2.265 2.608-0.215 1.146 0.15 2.251 0.952 2.883 0.427 0.337 0.959 0.645 1.687 0.971v4.921c-0.636-0.046-1.072-0.2-1.791-0.673zM19.060 10.141c-0.327-0.258-0.466-0.759-0.363-1.308 0.093-0.494 0.419-1.089 1.056-1.325v3.077c-0.261-0.142-0.497-0.289-0.693-0.444zM21.552 13.092c1.51 0.537 1.417 1.837 1.353 2.222-0.126 0.755-0.651 1.555-1.54 1.87v-4.16c0.062 0.022 0.123 0.045 0.188 0.067z"></path>
</svg>
