<!-- Generated by IcoMoon.io -->
<svg version="1.1" xmlns="http://www.w3.org/2000/svg" width="46" height="56" viewBox="0 0 46 56">
<title>alcohol</title>
<path d="M44.797 6.853h-28.070c-0.317-1.777-1.204-3.405-2.546-4.645-1.541-1.424-3.546-2.208-5.645-2.208-4.589 0-8.323 3.734-8.323 8.323s3.734 8.323 8.323 8.323c0.843 0 1.671-0.128 2.47-0.377 1.252 1.181 2.803 2.065 4.555 2.52 1.132 0.294 1.992 1.228 2.191 2.38l1.056 6.118c0.373 2.161 1.576 4.035 3.387 5.276 1.373 0.941 2.193 2.475 2.193 4.104v12.469c-0.634 0.402-1.039 1.107-1.039 1.886 0 0.024 0 0.047 0.001 0.071-2.076 0.424-3.786 0.815-5.084 1.162-0.884 0.236-1.551 0.445-2.040 0.637-0.455 0.179-1.301 0.513-1.301 1.287 0 1.041 1.353 1.218 2.44 1.361 0.934 0.123 2.228 0.225 3.846 0.304 2.733 0.134 5.503 0.156 5.53 0.156 0.002 0 0.004 0 0.006 0s0.004 0 0.006 0c0.028-0 2.797-0.022 5.53-0.156 1.618-0.079 2.912-0.181 3.846-0.304 1.087-0.143 2.44-0.321 2.44-1.361 0-0.823-0.759-1.248-3.532-1.975-1.68-0.441-3.773-0.886-5.276-1.189-0.002-0.6-0.24-1.161-0.655-1.573v-12.775c0-1.629 0.82-3.163 2.193-4.104 1.811-1.241 3.013-3.115 3.387-5.276l1.056-6.118c0.199-1.151 1.059-2.085 2.191-2.38 3.795-0.987 6.65-3.98 7.553-7.666 0.004-0.014 0.007-0.028 0.010-0.043 0.191-0.793 0.293-1.617 0.293-2.46v-0.776c0-0.547-0.445-0.991-0.991-0.991zM8.535 14.984c-3.673 0-6.661-2.988-6.661-6.661s2.988-6.661 6.661-6.661c1.68 0 3.284 0.627 4.517 1.767 1 0.924 1.685 2.117 1.979 3.425h-0.851c-0.658-2.534-2.966-4.365-5.645-4.365-3.217 0-5.835 2.617-5.835 5.835s2.617 5.835 5.835 5.835c0.24 0 0.48-0.016 0.719-0.046 0.159 0.26 0.33 0.513 0.511 0.758-0.404 0.076-0.815 0.114-1.23 0.114zM11.080 5.779c-0.324-0.324-0.851-0.324-1.175 0l-0.248 0.248c-0.224 0.224-0.293 0.543-0.208 0.826h-0.752c-0.547 0-0.991 0.445-0.991 0.991v0.776c0 0.843 0.102 1.667 0.293 2.46 0.003 0.015 0.007 0.030 0.011 0.045 0.115 0.468 0.26 0.925 0.436 1.368-2.258-0.049-4.081-1.901-4.081-4.171 0-2.301 1.872-4.173 4.173-4.173 1.765 0 3.306 1.112 3.905 2.703h-1.277c0.236-0.325 0.209-0.782-0.084-1.075zM29.31 52.619c2.921 0.588 4.755 1.033 5.903 1.355-2.099 0.206-5.466 0.341-8.467 0.364-3-0.023-6.366-0.158-8.466-0.364 1.098-0.308 2.823-0.729 5.526-1.279 0.748-0.152 1.266-0.852 1.204-1.628-0.001-0.015-0.002-0.030-0.002-0.045 0-0.257 0.174-0.484 0.423-0.55 0.363-0.097 0.616-0.427 0.616-0.803v-13.002c0-1.094-0.275-2.155-0.781-3.098 0.464 0.030 0.972 0.045 1.479 0.045s1.015-0.015 1.479-0.045c-0.505 0.944-0.781 2.005-0.781 3.098v13.17c0 0.285 0.146 0.55 0.387 0.703 0.168 0.106 0.268 0.286 0.268 0.483 0 0.013-0 0.025-0.001 0.037-0.048 0.741 0.473 1.412 1.211 1.561zM44.126 8.621h-0c0 0.5-0.042 0.991-0.123 1.471h-25.014c-0.459 0-0.831 0.372-0.831 0.831s0.372 0.831 0.831 0.831h24.563c-0.994 2.624-3.204 4.691-6.038 5.428-1.762 0.458-3.1 1.912-3.41 3.705l-1.056 6.118c-0.296 1.716-1.251 3.203-2.688 4.188-0.223 0.153-0.885 0.51-1.006 0.563-0.658 0.259-4.553 0.259-5.214 0-0.12-0.053-0.783-0.411-1.007-0.564-1.438-0.985-2.392-2.472-2.688-4.188l-1.056-6.118c-0.309-1.793-1.648-3.247-3.41-3.705-1.604-0.417-3.007-1.26-4.105-2.389-0.026-0.032-0.055-0.062-0.085-0.089-0.801-0.847-1.432-1.849-1.849-2.95h5.183c0.459 0 0.831-0.372 0.831-0.831s-0.372-0.831-0.831-0.831h-5.634c-0.081-0.48-0.123-0.972-0.123-1.471v-0.105h34.76v0.105z"></path>
</svg>
