<!-- Generated by IcoMoon.io -->
<svg version="1.1" xmlns="http://www.w3.org/2000/svg" width="56" height="56" viewBox="0 0 56 56">
<title>book-1</title>
<path d="M54.915 11.255c-0.004 0-0.007 0-0.011 0h-3.68v-1.259c0.020-0.498-0.303-0.946-0.782-1.085-2.555-0.669-5.185-1.005-7.826-0.999-4.342 0-10.258 0.977-14.632 5.427-4.342-4.494-10.301-5.427-14.632-5.427-2.641-0.007-5.272 0.329-7.826 0.999-0.479 0.139-0.801 0.587-0.782 1.085v1.248h-3.658c-0.599 0-1.085 0.486-1.085 1.085v34.67c0 0.599 0.486 1.085 1.085 1.085 0.186-0 0.37-0.049 0.532-0.141 0.109-0.054 10.963-5.992 26.117-2.171h0.26c0.087 0.010 0.174 0.010 0.26 0 15.197-3.853 26.051 2.073 26.117 2.171 0.336 0.194 0.75 0.194 1.085 0 0.334-0.193 0.54-0.548 0.543-0.934v-34.67c0-0.599-0.486-1.085-1.085-1.085zM2.171 45.273v-31.848h2.594v27.224c-0.007 0.599 0.474 1.091 1.073 1.098 0.059 0.001 0.117-0.003 0.175-0.012 2.246-0.343 4.513-0.524 6.784-0.543 3.147-0.055 6.28 0.419 9.27 1.4-6.752-0.817-13.601 0.106-19.897 2.681zM12.798 39.032c-1.974 0.004-3.946 0.131-5.905 0.38v-28.559c2.113-0.471 4.272-0.711 6.437-0.716 4.060 0 9.661 0.934 13.547 5.319l0.033 27.039c-2.258-1.476-6.665-3.463-14.111-3.463zM29.080 15.455c3.886-4.342 9.487-5.319 13.547-5.319 2.165 0.006 4.323 0.246 6.437 0.716v28.559c-1.948-0.251-3.909-0.381-5.873-0.391-7.403 0-11.821 1.987-14.111 3.463v-27.028zM53.818 45.273c-6.309-2.582-13.174-3.505-19.94-2.681 3.004-0.985 6.153-1.459 9.313-1.4 2.286 0.013 4.568 0.19 6.828 0.532 0.593 0.090 1.146-0.318 1.236-0.91 0.009-0.058 0.013-0.117 0.012-0.175v-27.213h2.594l-0.043 31.848z"></path>
</svg>
