<!-- Generated by IcoMoon.io -->
<svg version="1.1" xmlns="http://www.w3.org/2000/svg" width="52" height="56" viewBox="0 0 52 56">
<title>entertainment</title>
<path d="M50.992 27.517l-2.249-2.249v-21.4l1.89-1.89c0.371-0.37 0.371-0.971 0-1.341s-0.971-0.37-1.342 0l-1.89 1.89h-21.4l-2.249-2.249c-0.371-0.37-0.971-0.37-1.341 0s-0.371 0.971 0 1.341l2.153 2.153-6.677 28.294c-0.551 0.688-0.735 1.605-0.477 2.462 0.287 0.953 1.071 1.668 2.046 1.866l4.258 0.864c0.807 0.164 1.494 0.674 1.883 1.4s0.436 1.58 0.126 2.343c-0.503 1.242-1.821 1.942-3.131 1.664l-15.952-3.38c-2.402-0.509-4.824 0.854-5.635 3.172-0.47 1.344-0.333 2.822 0.376 4.056s1.918 2.097 3.316 2.367l0.066 0.013c1.257 0.242 2.325 1.029 2.929 2.158s0.667 2.453 0.172 3.634c-0.203 0.483 0.025 1.039 0.508 1.242 0.12 0.050 0.244 0.074 0.366 0.074 0.371 0 0.723-0.219 0.875-0.582 0.717-1.71 0.627-3.628-0.249-5.263s-2.421-2.774-4.242-3.125l-0.066-0.013c-0.856-0.165-1.596-0.693-2.031-1.449s-0.519-1.661-0.23-2.484c0.497-1.419 1.98-2.254 3.45-1.942l15.952 3.38c2.212 0.469 4.433-0.712 5.282-2.807 0.522-1.288 0.445-2.729-0.213-3.953s-1.815-2.085-3.178-2.362l-4.258-0.864c-0.424-0.086-0.566-0.416-0.607-0.554-0.034-0.112-0.081-0.364 0.063-0.619l28.207-6.656 2.153 2.153c0.185 0.185 0.428 0.278 0.671 0.278s0.486-0.092 0.671-0.278c0.371-0.371 0.371-0.971 0-1.342zM45.503 4.424l-8.803 8.802-8.803-8.802h17.605zM26.141 5.349l9.219 9.219-14.913 14.914 5.695-24.132zM21.787 30.823l14.914-14.914 9.219 9.219-24.132 5.695zM46.845 23.37l-8.803-8.803 8.803-8.803v17.605z"></path>
</svg>
