<!-- Generated by IcoMoon.io -->
<svg version="1.1" xmlns="http://www.w3.org/2000/svg" width="62" height="56" viewBox="0 0 62 56">
<title>food</title>
<path d="M23.931 20.821c-0.521-0.571-1.264-0.905-2.037-0.917-1.555-0.020-2.841 1.219-2.867 2.773-0.008 0.501 0.391 0.913 0.891 0.922 0.005 0 0.010 0 0.016 0 0.494 0 0.898-0.396 0.906-0.891 0.009-0.555 0.465-1 1.025-0.99 0.28 0.004 0.538 0.12 0.726 0.327 0.338 0.37 0.911 0.396 1.281 0.058s0.396-0.911 0.058-1.281z"></path>
<path d="M28.755 23.776c-0.278-0.653-0.819-1.169-1.485-1.415-1.339-0.494-2.831 0.192-3.327 1.53-0.174 0.47 0.065 0.991 0.535 1.166 0.104 0.039 0.211 0.057 0.315 0.057 0.368 0 0.715-0.226 0.85-0.592 0.149-0.402 0.598-0.607 0.999-0.459 0.202 0.074 0.359 0.225 0.444 0.423 0.196 0.461 0.729 0.676 1.189 0.48s0.676-0.728 0.48-1.189z"></path>
<path d="M34.599 15.746c-0.354-0.354-0.929-0.353-1.282 0.001l-0.855 0.856c-0.354 0.354-0.353 0.929 0.001 1.282 0.177 0.177 0.409 0.265 0.64 0.265s0.465-0.089 0.642-0.266l0.855-0.856c0.354-0.354 0.353-0.929-0.001-1.282z"></path>
<path d="M28.958 27.45h-1.208c-0.501 0-0.907 0.406-0.907 0.907s0.406 0.907 0.907 0.907h1.208c0.501 0 0.907-0.406 0.907-0.907s-0.406-0.907-0.907-0.907z"></path>
<path d="M38.223 27.45h-1.209c-0.501 0-0.907 0.406-0.907 0.907s0.406 0.907 0.907 0.907h1.209c0.501 0 0.907-0.406 0.907-0.907s-0.406-0.907-0.907-0.907z"></path>
<path d="M61.866 43.798l-0.236-1.274c-0.15-0.814-0.861-1.405-1.691-1.405-0.104 0-0.209 0.010-0.312 0.028l-4.806 0.883 2.177-1.455c0.571-0.381 0.859-1.063 0.734-1.74-0.035-0.185-0.099-0.363-0.193-0.53l-0.659-1.166c-0.226-0.401-0.611-0.699-1.055-0.817-0.218-0.058-0.445-0.071-0.667-0.042 0.242-1.338 0.367-2.704 0.367-4.095 0-0.617-0.371-1.148-0.901-1.384 0.693-1.647 0.74-3.534 0.055-5.261-0.056-0.14-0.138-0.266-0.245-0.373s-0.23-0.188-0.37-0.244c-0.821-0.327-1.683-0.492-2.563-0.492-0.112 0-0.225 0.003-0.336 0.008-0.126-2.53-2.22-4.551-4.777-4.551-0.337 0-0.665 0.036-0.982 0.102 0.22-1.318 0.091-2.696-0.423-3.99-0.055-0.142-0.138-0.27-0.251-0.384-0.108-0.108-0.235-0.192-0.376-0.248-0.884-0.352-1.813-0.53-2.761-0.53-1.428 0-2.795 0.402-3.974 1.148-0.431-1.248-1.142-2.42-2.135-3.416-0.291-0.291-0.678-0.452-1.089-0.452s-0.798 0.161-1.090 0.452l-4.39 4.4c-0.812-0.725-1.881-1.158-3.042-1.158-0.263 0-0.529 0.023-0.79 0.069-0.946 0.165-1.816 0.627-2.483 1.305-0.856-0.413-1.836-0.554-2.777-0.39-0.207 0.036-0.408 0.087-0.603 0.149v-3.39c0-2.335-1.877-4.238-4.198-4.278v-1.923c0.711-0.123 1.253-0.742 1.253-1.487v-4.357c0-0.833-0.678-1.511-1.511-1.511h-7.373c-0.833 0-1.511 0.678-1.511 1.511v4.357c0 0.745 0.543 1.364 1.253 1.487v1.923c-2.321 0.040-4.198 1.943-4.198 4.278v26.462c-1.81 1.635-2.937 3.916-2.937 6.438 0 4.962 4.355 8.999 9.708 8.999l36.289-0.011c1.239-0 2.403-0.545 3.196-1.493 0.772-0.923 1.1-2.123 0.911-3.305l7.248 1.303c0.1 0.018 0.203 0.027 0.305 0.027 0.361 0 0.708-0.111 1.001-0.321 0.377-0.269 0.632-0.686 0.7-1.144l0.196-1.317c0.028-0.189 0.025-0.379-0.009-0.565-0.125-0.674-0.638-1.208-1.307-1.361l-2.555-0.586 4.802-0.882c0.453-0.083 0.846-0.337 1.106-0.716s0.357-0.834 0.274-1.285zM51.501 26.244c0.546 0 1.082 0.086 1.598 0.257 0.461 1.404 0.288 2.918-0.434 4.169h-2.442l0.779-0.781c0.354-0.354 0.353-0.929-0.002-1.282s-0.929-0.353-1.282 0.001l-0.412 0.413c-0.193-0.636-0.531-1.206-0.974-1.674 0.9-0.715 2.005-1.104 3.169-1.104zM46.388 21.702c1.637 0 2.969 1.336 2.969 2.978 0 0.030-0.001 0.061-0.002 0.091-0.956 0.311-1.837 0.83-2.588 1.535-0.12-0.045-0.241-0.087-0.365-0.122-0.265-1.433-1.231-2.581-2.506-3.118 0.529-0.82 1.448-1.365 2.492-1.365zM41.595 16.652c0.616 0 1.221 0.1 1.804 0.297 0.469 1.393 0.373 2.891-0.224 4.187-0.491 0.447-0.889 0.995-1.161 1.61-0.162 0.009-0.324 0.027-0.484 0.055-0.71 0.124-1.373 0.432-1.927 0.879-0.189-0.346-0.421-0.665-0.686-0.952l2.079-2.084c0.354-0.354 0.353-0.929-0.002-1.282s-0.929-0.353-1.282 0.001l-2.272 2.278c-0.432-0.204-0.9-0.347-1.391-0.413 0.212-1.082 0.737-2.101 1.549-2.915 1.069-1.071 2.488-1.661 3.997-1.661zM34.648 30.671h-0.786c-0.132-0.337-0.46-0.576-0.843-0.576s-0.711 0.239-0.843 0.576h-0.924c0.215-0.35 0.171-0.813-0.132-1.115-0.354-0.354-0.929-0.353-1.282 0.001l-0.855 0.856c-0.077 0.077-0.136 0.165-0.179 0.258h-1.845c-0.691-1.061-1.113-2.312-1.163-3.659h14.384c-0.050 1.347-0.472 2.598-1.163 3.659h-1.92c-0.043-0.093-0.102-0.181-0.179-0.258l-0.854-0.856c-0.354-0.354-0.928-0.355-1.282-0.001-0.303 0.302-0.347 0.766-0.132 1.115zM32.539 25.198c0.342-1.267 1.497-2.201 2.866-2.201s2.525 0.935 2.866 2.201h-5.733zM34.393 14.050c0.862 0.932 1.433 2.039 1.712 3.202-0.463 0.503-0.847 1.059-1.151 1.65-0.138-0.084-0.299-0.134-0.472-0.134h-1.208c-0.501 0-0.907 0.406-0.907 0.907s0.406 0.907 0.907 0.907h1.060c-0.060 0.25-0.106 0.504-0.14 0.759-0.36 0.095-0.704 0.229-1.026 0.401-0.604-1.043-1.605-1.82-2.791-2.132-0-0.003-0.001-0.005-0.001-0.008-0.071-0.41-0.195-0.8-0.364-1.161l4.38-4.39zM18.003 22.231c-0.053-0.149-0.093-0.301-0.12-0.454-0.26-1.499 0.751-2.931 2.252-3.193 0.158-0.028 0.319-0.042 0.478-0.042 0.597 0 1.168 0.191 1.651 0.551 0.2 0.149 0.452 0.209 0.698 0.167s0.463-0.185 0.601-0.392c0.426-0.642 1.077-1.068 1.834-1.2 0.159-0.028 0.32-0.042 0.479-0.042 1.343 0 2.485 0.961 2.714 2.285 0.026 0.152 0.040 0.31 0.040 0.47 0.001 0.469 0.36 0.861 0.827 0.902 1.014 0.089 1.876 0.727 2.277 1.626-0.536 0.643-0.907 1.428-1.048 2.289h-5.171c-0.643 0-1.194 0.397-1.425 0.959-1.137-0.775-2.478-1.192-3.883-1.192-0.88 0-1.743 0.166-2.564 0.493-0.139 0.056-0.264 0.138-0.37 0.244-0.108 0.108-0.19 0.234-0.244 0.372-0.209 0.526-0.348 1.067-0.423 1.612-0.325-0.37-0.554-0.83-0.643-1.346-0.213-1.23 0.431-2.455 1.566-2.979 0.427-0.197 0.632-0.687 0.474-1.129zM20.706 30.423l0.247 0.248h-2.177c-0.489-1.134-0.563-2.425-0.166-3.636 0.517-0.171 1.053-0.257 1.598-0.257 1.366 0 2.651 0.534 3.619 1.503 0.129 0.129 0.248 0.264 0.361 0.404 0.154 0.696 0.39 1.36 0.694 1.986h-1.366l-1.525-1.529c-0.354-0.354-0.928-0.355-1.282-0.001s-0.355 0.928-0.002 1.282zM16.845 30.671h-3.232c0.144-0.878 0.672-1.627 1.406-2.068 0.434 0.582 1.001 1.052 1.653 1.37 0.046 0.235 0.103 0.468 0.173 0.698zM7.695 1.813h6.769v3.752h-6.769v-3.752zM13.21 7.379v1.897h-4.262v-1.897h4.262zM4.751 17.233h5.888c0.501 0 0.907-0.406 0.907-0.907s-0.406-0.907-0.907-0.907h-5.888v-1.864c0-1.36 1.103-2.466 2.459-2.466h7.74c1.356 0 2.459 1.106 2.459 2.466v1.864h-1.693c-0.501 0-0.907 0.406-0.907 0.907s0.406 0.907 0.907 0.907h1.693v0.805c-1.039 1.018-1.578 2.512-1.312 4.048 0 0.003 0.001 0.006 0.002 0.009-1.455 0.998-2.23 2.772-1.921 4.553 0.018 0.104 0.041 0.206 0.065 0.307-0.453 0.25-0.86 0.572-1.208 0.95h-8.283v-10.673zM4.75 29.718h7.231c-0.096 0.306-0.164 0.624-0.197 0.952h-0.153c-0.834 0-1.514 0.68-1.514 1.515 0 1.44 0.134 2.853 0.393 4.236-0.261-0.021-0.528-0.032-0.799-0.032-1.096 0-2.141 0.174-2.941 0.49-1.224 0.483-1.562 1.169-1.636 1.644-0.13 0.065-0.257 0.133-0.383 0.203v-9.007zM16.231 40.856c0.326 0.261 0.526 0.483 0.642 0.644-0.011 0-0.022 0-0.034 0-0.513 0-1.435-0.207-2.484-0.787-0.39-0.216-0.75-0.461-1.040-0.706-0.338-0.287-0.834-0.286-1.172 0-0.29 0.246-0.65 0.49-1.040 0.706-1.049 0.581-1.971 0.787-2.484 0.787-0.012 0-0.023-0-0.034-0 0.116-0.16 0.315-0.382 0.642-0.644 0.285-0.228 0.406-0.606 0.305-0.958s-0.403-0.608-0.766-0.651c-0.885-0.104-1.444-0.329-1.706-0.493 0.328-0.204 1.158-0.553 2.651-0.553 1.237 0 2.141 0.26 2.574 0.503 0.276 0.155 0.612 0.155 0.888 0 0.434-0.243 1.338-0.504 2.574-0.504 1.493 0 2.323 0.349 2.651 0.553-0.262 0.164-0.821 0.389-1.706 0.493-0.363 0.043-0.665 0.299-0.766 0.651s0.019 0.729 0.305 0.958zM14.418 51.892l0.031 0.168c0.108 0.582 0.335 1.117 0.653 1.581h-5.393c-4.353 0-7.895-3.223-7.895-7.185 0-2.708 1.655-5.069 4.091-6.294 0.28 0.209 0.629 0.389 1.043 0.534-0.164 0.28-0.279 0.582-0.305 0.896-0.036 0.418 0.092 0.815 0.361 1.118 0.355 0.4 0.899 0.603 1.618 0.603 0.958 0 2.215-0.379 3.362-1.014 0.264-0.146 0.514-0.3 0.748-0.462 0.234 0.161 0.483 0.316 0.748 0.462 1.147 0.635 2.404 1.014 3.362 1.014h0c0.719 0 1.263-0.203 1.617-0.603 0.269-0.303 0.397-0.7 0.361-1.118-0.027-0.315-0.141-0.616-0.306-0.896 0.414-0.145 0.763-0.326 1.043-0.534 1.932 0.971 3.372 2.658 3.886 4.665l-6.412 2.436c-1.877 0.713-2.975 2.66-2.61 4.629zM47.801 52.788c-0.447 0.535-1.105 0.842-1.805 0.843l-0.952 0-0.595-3.21c-0.091-0.492-0.564-0.818-1.057-0.726s-0.818 0.564-0.726 1.057l0.534 2.881-3.12 0.001-0.402-2.171c-0.091-0.492-0.564-0.818-1.057-0.726s-0.818 0.564-0.726 1.057l0.341 1.841-7.256 0.003-0.546-2.948c-0.091-0.492-0.564-0.818-1.057-0.726s-0.818 0.564-0.726 1.057l0.485 2.619-10.595 0.004c-0 0-0 0-0.001 0-1.133 0-2.104-0.804-2.309-1.912l-0.031-0.168c-0.205-1.107 0.414-2.202 1.471-2.604l3.563-1.354 0.265 1.433c0.081 0.437 0.462 0.742 0.89 0.742 0.055 0 0.111-0.005 0.166-0.015 0.492-0.091 0.818-0.564 0.726-1.057l-0.326-1.757 5.289-2.009c0.468-0.178 0.703-0.701 0.526-1.17s-0.702-0.703-1.169-0.526l-2.461 0.935c-0.69-2.445-2.464-4.487-4.817-5.657-0.074-0.475-0.412-1.161-1.636-1.644-0.8-0.316-1.845-0.49-2.941-0.49-0.755 0-1.475 0.083-2.111 0.235v-0.548c0-0.501-0.406-0.907-0.907-0.907-0.212 0-0.406 0.073-0.56 0.195-0.143-0.946-0.223-1.906-0.236-2.88h29.531c0.501 0 0.907-0.406 0.907-0.907s-0.406-0.907-0.907-0.907h-0.371c0.577-1.189 0.903-2.522 0.903-3.931 0-0.8-0.612-1.459-1.392-1.534 0.34-0.32 0.763-0.536 1.236-0.618 0.138-0.024 0.279-0.036 0.418-0.036 1.17 0 2.165 0.837 2.365 1.991 0.023 0.133 0.035 0.271 0.035 0.41 0.001 0.469 0.36 0.861 0.827 0.902 1.083 0.095 1.97 0.91 2.156 1.982 0.049 0.285 0.043 0.566-0.006 0.835h-0.973c-0.501 0-0.907 0.406-0.907 0.907s0.406 0.907 0.907 0.907h7.047c-0.022 1.663-0.237 3.288-0.636 4.864l-4.914 2.901c-0.301-1.046-0.999-1.933-1.961-2.472-1.079-0.604-2.362-0.698-3.519-0.259l-10.12 3.844c-0.468 0.178-0.703 0.702-0.526 1.17s0.702 0.703 1.169 0.526l1.333-0.506 0.414 2.235c0.081 0.437 0.462 0.742 0.89 0.742 0.055 0 0.11-0.005 0.166-0.015 0.492-0.091 0.818-0.564 0.726-1.057l-0.474-2.559 7.063-2.683c0.654-0.248 1.38-0.195 1.99 0.146 0.609 0.341 1.031 0.928 1.158 1.612l1.834 9.902c0.126 0.683-0.057 1.381-0.503 1.915zM51.036 45.691c-0.423 0.078-0.733 0.442-0.743 0.872s0.285 0.807 0.704 0.904l6.75 1.548-0.169 1.131-7.826-1.406-1.223-6.605 6.816-4.024 0.568 1.005-5.749 3.843c-0.357 0.239-0.498 0.696-0.336 1.095s0.581 0.629 1.004 0.551l9.031-1.659 0.201 1.086-9.029 1.659z"></path>
</svg>
