<!-- Generated by IcoMoon.io -->
<svg version="1.1" xmlns="http://www.w3.org/2000/svg" width="56" height="56" viewBox="0 0 56 56">
<title>health</title>
<path d="M55.794 31.2l-0.997-14.534c-0.065-0.941-0.493-1.801-1.205-2.419s-1.624-0.921-2.565-0.853c-1.85 0.135-3.284 1.693-3.266 3.548l0.118 11.849-5.132 6.573c-0.819 1.049-2.179 1.471-3.412 1.155l5.584-7.252c0.98-1.273 0.817-3.117-0.371-4.198-0.634-0.577-1.454-0.863-2.31-0.803s-1.628 0.456-2.177 1.116l-8.436 10.16c-1.391 1.676-2.146 3.798-2.125 5.976l0.131 13.492c0.005 0.538 0.442 0.971 0.98 0.972l14.047 0.019c0 0 0.001 0 0.001 0 0.275 0 0.537-0.115 0.723-0.318s0.279-0.474 0.255-0.749l-0.573-6.604 9.325-12.393c1.022-1.358 1.521-3.040 1.405-4.736zM52.821 34.756l-9.551 12.694c-0.146 0.193-0.214 0.434-0.194 0.675l0.513 5.911-12.005-0.016-0.122-12.522c-0.017-1.714 0.577-3.384 1.672-4.703l8.436-10.16c0.202-0.244 0.487-0.39 0.803-0.412s0.619 0.083 0.853 0.296c0.438 0.399 0.498 1.079 0.137 1.549l-6.337 8.23c-0.166 0.216-0.235 0.491-0.191 0.759s0.199 0.507 0.426 0.657c2.268 1.504 5.357 1.002 7.032-1.143l5.344-6.844c0.137-0.175 0.21-0.392 0.208-0.614l-0.121-12.192c-0.008-0.821 0.627-1.511 1.446-1.571 0.418-0.030 0.82 0.104 1.135 0.378s0.505 0.654 0.534 1.071l0.997 14.534c0.084 1.225-0.276 2.44-1.015 3.422z"></path>
<path d="M15.939 25.381c-0.548-0.66-1.321-1.056-2.177-1.116s-1.676 0.225-2.31 0.803c-1.188 1.081-1.351 2.925-0.371 4.198l5.585 7.252c-1.232 0.316-2.593-0.105-3.412-1.155l-5.133-6.573 0.118-11.849c0.018-1.855-1.416-3.413-3.266-3.548-0.94-0.068-1.852 0.234-2.565 0.853s-1.141 1.478-1.205 2.419l-0.997 14.534c-0.116 1.696 0.383 3.378 1.405 4.736l9.325 12.393-0.573 6.604c-0.024 0.274 0.069 0.546 0.255 0.749s0.448 0.318 0.723 0.318c0 0 0.001 0 0.001 0l14.047-0.019c0.538-0.001 0.975-0.434 0.98-0.972l0.131-13.492c0.021-2.178-0.734-4.3-2.125-5.976l-8.436-10.16zM24.416 54.019l-12.005 0.016 0.513-5.911c0.021-0.241-0.048-0.482-0.193-0.675l-9.551-12.694c-0.738-0.981-1.099-2.197-1.015-3.422l0.997-14.534c0.029-0.417 0.218-0.797 0.534-1.071 0.286-0.248 0.645-0.382 1.020-0.382 0.038 0 0.077 0.001 0.116 0.004 0.819 0.060 1.454 0.75 1.446 1.571l-0.121 12.192c-0.002 0.222 0.071 0.439 0.208 0.614l5.344 6.844c1.675 2.145 4.764 2.647 7.032 1.143 0.227-0.151 0.381-0.389 0.426-0.657s-0.024-0.544-0.19-0.76l-6.337-8.229c-0.362-0.47-0.302-1.15 0.137-1.549 0.234-0.213 0.537-0.318 0.853-0.296s0.601 0.168 0.803 0.412l8.436 10.16c1.095 1.319 1.689 2.989 1.672 4.703l-0.122 12.522z"></path>
<path d="M47.225 11.043c0-2.95-1.149-5.723-3.234-7.808s-4.859-3.234-7.809-3.234c-2.95 0-5.723 1.149-7.809 3.234l-0.373 0.373-0.373-0.373c-2.086-2.086-4.859-3.234-7.808-3.234s-5.723 1.149-7.809 3.234c-4.305 4.306-4.305 11.311 0 15.617l15.296 15.296c0.192 0.192 0.443 0.287 0.694 0.287s0.502-0.096 0.694-0.287l15.296-15.296c2.086-2.086 3.234-4.859 3.234-7.808zM28 32.066l-14.602-14.602c-3.54-3.54-3.54-9.301 0-12.841 1.715-1.715 3.995-2.659 6.42-2.659s4.706 0.944 6.421 2.66l1.067 1.067c0.184 0.184 0.434 0.287 0.694 0.287s0.51-0.104 0.694-0.287l1.067-1.067c1.715-1.715 3.995-2.66 6.421-2.66s4.706 0.944 6.421 2.66c1.715 1.715 2.66 3.995 2.66 6.421s-0.945 4.706-2.66 6.421l-14.602 14.602z"></path>
</svg>
