<!-- Generated by IcoMoon.io -->
<svg version="1.1" xmlns="http://www.w3.org/2000/svg" width="56" height="56" viewBox="0 0 56 56">
<title>hobbies</title>
<path d="M54.285 23.651h-3.338c-0.619 0-1.164 0.318-1.483 0.798-2.551-0.267-2.892-0.675-3.167-1.009-0.375-0.453-0.82-0.838-1.322-1.143l-7.669-4.659c-1.562-3.628-4.175-5.897-6.114-7.168-0.755-0.495-1.206-1.334-1.206-2.243 0-0.537 0.158-1.055 0.457-1.501l1.907-2.839c0.38-0.565 0.511-1.244 0.37-1.91s-0.537-1.233-1.114-1.596c-0.399-0.25-0.858-0.382-1.328-0.382h-9.062c-0.47 0-0.93 0.132-1.328 0.382-0.577 0.362-0.972 0.929-1.114 1.596s-0.010 1.345 0.37 1.91l1.907 2.839c0.299 0.445 0.457 0.964 0.457 1.501 0 0.91-0.451 1.748-1.206 2.243-2.873 1.884-9.294 7.438-6.866 18.291 1.354 6.054 2.4 10.32 3.029 12.373h-13.526c-1.116 0-2.091 0.793-2.319 1.885l-0.462 2.219c-0.146 0.701 0.029 1.422 0.481 1.978s1.122 0.874 1.838 0.874h46.54c0.717 0 1.386-0.319 1.838-0.874s0.627-1.277 0.481-1.978l-0.462-2.219c-0.228-1.092-1.203-1.885-2.319-1.885h-13.526c0.188-0.614 0.415-1.431 0.678-2.443h0.89c2.613 0 5.202-0.39 7.698-1.16l5.098-0.643c0.305 0.544 0.886 0.914 1.553 0.914h3.338c0.98 0 1.779-0.798 1.779-1.779v-10.595c0-0.981-0.798-1.779-1.779-1.779zM20.381 2.319c0.048-0.229 0.184-0.423 0.382-0.547 0.137-0.086 0.294-0.131 0.455-0.131h9.062c0.161 0 0.319 0.045 0.455 0.131 0.198 0.124 0.333 0.318 0.382 0.547s0.003 0.461-0.127 0.655l-0.944 1.405h-8.595l-0.944-1.405c-0.13-0.194-0.175-0.426-0.126-0.655zM21.204 11.843c1.219-0.799 1.947-2.151 1.947-3.615 0-0.782-0.211-1.54-0.608-2.209h6.411c-0.397 0.669-0.608 1.427-0.608 2.209 0 1.464 0.728 2.816 1.947 3.615 0.502 0.329 1.055 0.733 1.62 1.218h-12.326c0.574-0.493 1.128-0.898 1.616-1.218zM49.269 43.355l0.462 2.219c0.062 0.295-0.066 0.507-0.148 0.608s-0.264 0.269-0.565 0.269h-46.54c-0.301 0-0.483-0.168-0.565-0.269s-0.209-0.313-0.148-0.608l0.462-2.219c0.070-0.336 0.37-0.579 0.713-0.579h45.615c0.343 0 0.643 0.244 0.713 0.579zM33.308 41.135h-15.119c-0.338-1.007-1.196-3.999-3.15-12.732-0.824-3.682-0.627-7.016 0.581-9.933h3.022c0.453 0 0.82-0.367 0.82-0.82s-0.367-0.82-0.82-0.82h-2.208c0.463-0.798 0.978-1.505 1.513-2.128h15.609c0.536 0.625 1.050 1.332 1.51 2.128h-13.138c-0.453 0-0.82 0.367-0.82 0.82s0.367 0.82 0.82 0.82h10.871c-0.209 0.511-0.252 1.072-0.118 1.618 0.168 0.682 0.591 1.259 1.191 1.622l1.41 0.857h-9.117c-1.448 0-2.622 1.114-2.672 2.536-0.014 0.379 0.052 0.746 0.19 1.086h-0.841c-0.721 0-1.393 0.285-1.894 0.804s-0.762 1.201-0.736 1.922c0.040 1.127 0.785 2.060 1.814 2.399-0.163 0.342-0.254 0.724-0.254 1.127 0 1.45 1.18 2.631 2.631 2.631h1.243c-0.125 0.306-0.193 0.64-0.193 0.99 0 1.451 1.18 2.631 2.631 2.631h5.929c-0.345 1.304-0.567 2.035-0.704 2.442zM44.019 35.914c-0.048 0.006-0.095 0.016-0.141 0.030-2.359 0.735-4.809 1.107-7.28 1.107h-8.515c-0.546 0-0.99-0.444-0.99-0.99s0.444-0.99 0.99-0.99h5.377c0.453 0 0.82-0.367 0.82-0.82s-0.367-0.82-0.82-0.82h-9.057c-0.546 0-0.99-0.444-0.99-0.99s0.444-0.99 0.99-0.99h9.057c0.453 0 0.82-0.367 0.82-0.82s-0.367-0.82-0.82-0.82h-10.576c-0.551 0-1.014-0.428-1.033-0.954-0.009-0.272 0.089-0.529 0.277-0.725s0.442-0.302 0.713-0.302h10.619c0.453 0 0.82-0.367 0.82-0.82s-0.368-0.82-0.82-0.82h-7.338c-0.271 0-0.525-0.108-0.713-0.303s-0.286-0.452-0.277-0.725c0.019-0.525 0.482-0.953 1.033-0.953h11.307c0.466 0 0.864-0.302 0.99-0.751s-0.058-0.913-0.456-1.155l-3.283-1.994c-0.226-0.137-0.385-0.354-0.449-0.611s-0.023-0.523 0.115-0.749c0.283-0.467 0.893-0.617 1.359-0.335l8.375 5.087c0.346 0.21 0.652 0.475 0.91 0.787 0.671 0.811 1.532 1.297 4.135 1.581v9.197l-5.149 0.65zM54.423 36.025c0 0.076-0.062 0.138-0.138 0.138h-3.338c-0.076 0-0.138-0.062-0.138-0.138v-10.596c0-0.076 0.062-0.138 0.138-0.138h3.338c0.076 0 0.138 0.062 0.138 0.138v10.596z"></path>
<path d="M39.334 53.354l-4.272-3.437c-0.353-0.284-0.869-0.228-1.153 0.125s-0.228 0.869 0.125 1.153l3.934 3.165h-24.438l3.942-3.171c0.353-0.284 0.409-0.8 0.125-1.153s-0.8-0.409-1.153-0.125l-4.281 3.443c-0.499 0.401-0.683 1.050-0.471 1.653s0.763 0.993 1.403 0.993h25.308c0.64 0 1.19-0.39 1.403-0.993s0.028-1.252-0.471-1.653z"></path>
</svg>
