<!-- Generated by IcoMoon.io -->
<svg version="1.1" xmlns="http://www.w3.org/2000/svg" width="56" height="56" viewBox="0 0 56 56">
<title>other</title>
<path d="M55.993 39.084c-1.673-13.418-14.192-15.405-17.726-15.698v-12.186c0-0.084-0.118-8.4-10.267-8.4s-10.267 8.316-10.267 8.4v12.186c-3.534 0.293-16.048 2.281-17.726 15.698 0 0.019-0.007 0.094-0.007 0.116v3.733c0 0.515 0.418 0.933 0.933 0.933h4.667v1.867h-2.8c-0.515 0-0.933 0.418-0.933 0.933 0 2.26 1.365 6.533 6.533 6.533s6.533-4.274 6.533-6.533c0-0.515-0.418-0.933-0.933-0.933h-2.8v-1.867h14v1.867h-2.8c-0.515 0-0.933 0.418-0.933 0.933 0 2.26 1.365 6.533 6.533 6.533s6.533-4.274 6.533-6.533c0-0.515-0.418-0.933-0.933-0.933h-2.8v-1.867h14v1.867h-2.8c-0.515 0-0.933 0.418-0.933 0.933 0 2.26 1.365 6.533 6.533 6.533s6.533-4.274 6.533-6.533c0-0.515-0.418-0.933-0.933-0.933h-2.8v-1.867h4.667c0.515 0 0.933-0.418 0.933-0.933v-3.733c0-0.021 0-0.093-0.007-0.116zM19.6 11.2c0-0.267 0.093-6.533 8.4-6.533 8.249 0 8.4 6.27 8.4 6.533v12.133h-1.867v-5.6h-1.867v5.6h-13.067v-12.133zM10.827 27.010c2.477-1.088 5.137-1.702 7.84-1.811h18.667c2.703 0.108 5.363 0.723 7.84 1.811 4.707 1.948 8.049 6.219 8.808 11.256h-51.962c0.759-5.037 4.101-9.308 8.808-11.256zM8.4 51.333c-2.274 0.171-4.283-1.471-4.569-3.733h9.133c-0.296 2.255-2.296 3.89-4.564 3.733zM9.333 45.733h-1.867v-1.867h1.867v1.867zM28 51.333c-2.274 0.171-4.283-1.471-4.569-3.733h9.133c-0.296 2.255-2.296 3.89-4.564 3.733zM28.933 45.733h-1.867v-1.867h1.867v1.867zM47.6 51.333c-2.276 0.174-4.288-1.469-4.573-3.733h9.137c-0.296 2.255-2.296 3.89-4.564 3.733zM48.533 45.733h-1.867v-1.867h1.867v1.867zM54.133 42h-52.267v-1.867h52.267v1.867z"></path>
<path d="M28 27.067c-2.577 0-4.667 2.090-4.667 4.667s2.089 4.667 4.667 4.667c2.577 0 4.667-2.089 4.667-4.667-0.003-2.576-2.090-4.663-4.667-4.667zM28 34.534c-1.546 0-2.8-1.254-2.8-2.8s1.254-2.8 2.8-2.8c1.546 0 2.8 1.254 2.8 2.8s-1.254 2.8-2.8 2.8z"></path>
<path d="M29.867 31.733c0 1.031-0.836 1.867-1.867 1.867s-1.867-0.836-1.867-1.867c0-1.031 0.836-1.867 1.867-1.867s1.867 0.836 1.867 1.867z"></path>
<path d="M32.667 14h1.867v1.867h-1.867v-1.867z"></path>
<path d="M32.667 11.2v0.933h1.867v-0.933c0-0.478-0.187-4.667-6.533-4.667v1.867c4.331 0 4.667 2.147 4.667 2.8z"></path>
<path d="M19.6 30.8h1.867v1.867h-1.867v-1.867z"></path>
<path d="M15.867 30.8h1.867v1.867h-1.867v-1.867z"></path>
<path d="M34.533 30.8h1.867v1.867h-1.867v-1.867z"></path>
<path d="M38.267 30.8h1.867v1.867h-1.867v-1.867z"></path>
</svg>
