<!-- Generated by IcoMoon.io -->
<svg version="1.1" xmlns="http://www.w3.org/2000/svg" width="49" height="56" viewBox="0 0 49 56">
<title>salary</title>
<path d="M23.552 22.508c-0.187-0.067-0.378-0.136-0.57-0.207v-3.486c0.633 0.252 1.077 0.605 1.094 0.619 0.457 0.377 1.132 0.312 1.509-0.147 0.378-0.46 0.314-1.141-0.143-1.521-0.063-0.052-1.061-0.868-2.461-1.211v-0.529c0-0.597-0.481-1.080-1.075-1.080s-1.075 0.484-1.075 1.080v0.479c-0.114 0.025-0.228 0.052-0.343 0.087-1.235 0.374-2.127 1.421-2.386 2.8-0.251 1.34 0.183 2.676 1.107 3.404 0.421 0.332 0.935 0.637 1.622 0.953v4.569c-0.487-0.069-0.851-0.235-1.433-0.617-0.497-0.327-1.162-0.187-1.488 0.313s-0.186 1.169 0.311 1.495c1.021 0.671 1.74 0.907 2.609 0.982v0.672c0 0.597 0.481 1.080 1.075 1.080s1.075-0.484 1.075-1.080v-0.775c1.787-0.455 2.933-1.99 3.186-3.503 0.325-1.946-0.726-3.705-2.616-4.377zM20.834 21.306c-0.106-0.069-0.206-0.138-0.296-0.209-0.29-0.229-0.422-0.765-0.321-1.304 0.034-0.181 0.171-0.718 0.617-1.003v2.516zM24.049 26.527c-0.098 0.587-0.46 1.204-1.067 1.552v-3.477c1.166 0.493 1.137 1.502 1.067 1.925z"></path>
<path d="M47.934 23.206l-6.825-4.53v-17.468c0-0.597-0.481-1.080-1.075-1.080h-25.789c-0.593 0-1.075 0.484-1.075 1.080v4.105h-4.083c-0.593 0-1.075 0.484-1.075 1.080v12.283l-6.825 4.53c-0.301 0.2-0.482 0.539-0.482 0.901v30.245c0 0.597 0.481 1.080 1.075 1.080h17.945c0.593 0 1.075-0.484 1.075-1.080s-0.481-1.080-1.075-1.080h-15.351l15.666-15.748 3.928 2.607c0.179 0.119 0.386 0.179 0.592 0.179s0.413-0.060 0.592-0.179l3.928-2.607 15.667 15.748h-15.351c-0.593 0-1.075 0.484-1.075 1.080s0.481 1.080 1.075 1.080h17.945c0.593 0 1.075-0.484 1.075-1.080v-30.245c0-0.363-0.181-0.701-0.482-0.901zM45.392 24.108l-4.282 2.843v-5.686l4.282 2.843zM15.32 2.288h23.64v26.089l-3.009 1.997v-23.982c0-0.597-0.481-1.080-1.075-1.080h-19.557v-3.024zM8.013 21.265v5.686l-4.282-2.843 4.282-2.843zM2.855 51.745v-25.629l15.356 10.193-15.356 15.436zM24.561 37.936l-14.399-9.558v-20.904h23.64v24.328l-9.241 6.134zM46.268 26.116v25.629l-15.356-15.436 15.356-10.193z"></path>
<path d="M24.561 53.272c-0.283 0-0.56 0.116-0.76 0.317s-0.315 0.48-0.315 0.764c0 0.284 0.115 0.563 0.315 0.764s0.477 0.316 0.76 0.316 0.56-0.116 0.76-0.316c0.2-0.201 0.315-0.48 0.315-0.764s-0.115-0.563-0.315-0.764c-0.2-0.201-0.477-0.317-0.76-0.317z"></path>
</svg>
