<!-- Generated by IcoMoon.io -->
<svg version="1.1" xmlns="http://www.w3.org/2000/svg" width="56" height="56" viewBox="0 0 56 56">
<title>tools</title>
<path d="M37.99 16.969c-0.604 0-1.094 0.489-1.094 1.093s0.49 1.094 1.094 1.094c0.605 0 1.094-0.49 1.094-1.094s-0.489-1.093-1.094-1.093z"></path>
<path d="M18.117 36.842c-0.605 0-1.094 0.49-1.094 1.094 0 0.605 0.489 1.094 1.094 1.094 0.604 0 1.094-0.489 1.094-1.094 0-0.604-0.49-1.094-1.094-1.094z"></path>
<path d="M54.694 6.729c-0.369-0.086-0.757 0.026-1.024 0.295l-4.534 4.57h-2.174l-2.393-2.479v-2.204l4.469-4.536c0.265-0.268 0.372-0.654 0.284-1.021s-0.357-0.662-0.714-0.783c-1.123-0.379-2.298-0.57-3.493-0.57-3.562 0-6.799 1.661-8.879 4.557-1.947 2.711-2.548 6.034-1.688 9.214l-8.057 8.057-13.422-13.453v-2.64c0-0.384-0.202-0.74-0.531-0.938l-7.734-4.641c-0.431-0.259-0.981-0.191-1.336 0.164l-3.093 3.093c-0.355 0.355-0.423 0.906-0.165 1.336l4.64 7.734c0.197 0.329 0.553 0.531 0.937 0.531l2.64 0.001 13.424 13.453-8.026 8.026c-3.18-0.86-6.504-0.259-9.217 1.69-2.895 2.079-4.554 5.315-4.554 8.877 0 1.195 0.192 2.37 0.57 3.492 0.121 0.359 0.42 0.631 0.789 0.716s0.757-0.026 1.024-0.295l4.534-4.57h2.186l2.49 2.49v2.186l-4.57 4.534c-0.269 0.267-0.381 0.654-0.295 1.024s0.357 0.668 0.716 0.789c1.122 0.378 2.298 0.57 3.492 0.57 3.562 0 6.797-1.66 8.877-4.555 1.949-2.713 2.55-6.037 1.69-9.217l6.446-6.446 1.477 1.604-0.678 0.677c-0.427 0.427-0.427 1.12 0 1.547s1.119 0.427 1.547 0l0.613-0.613 13.854 15.048c0.010 0.011 0.021 0.022 0.032 0.032 2.563 2.563 6.717 2.564 9.282-0 2.558-2.559 2.558-6.722 0-9.281-0.011-0.011-0.023-0.022-0.034-0.032l-15.072-13.827 0.607-0.607c0.427-0.427 0.427-1.119 0-1.547s-1.119-0.427-1.547 0l-0.673 0.673-1.607-1.475 6.477-6.477c0.921 0.246 1.871 0.371 2.834 0.371 6.031 0 10.937-4.907 10.937-10.937 0-1.195-0.192-2.37-0.57-3.493-0.121-0.359-0.42-0.631-0.789-0.716zM9.656 11.149c-0.205-0.206-0.483-0.31-0.774-0.31l-2.474-0.001-3.882-6.481 1.885-1.885 6.47 3.883v2.474c0 0.29 0.115 0.567 0.32 0.772l13.744 13.775-1.547 1.547-13.742-13.773zM37.477 32.484l15.123 13.874c1.689 1.707 1.684 4.472-0.016 6.173-1.704 1.704-4.462 1.709-6.173 0.015l-13.899-15.098 4.965-4.964zM35.864 31.004l-4.834 4.833-1.477-1.604 4.704-4.704 1.607 1.475zM45.116 19.687c-0.957 0-1.897-0.153-2.795-0.456-0.393-0.132-0.829-0.030-1.122 0.263-5.483 5.483-17.298 17.298-21.649 21.649-0.294 0.294-0.396 0.729-0.263 1.123 0.909 2.7 0.474 5.579-1.194 7.902-1.663 2.315-4.252 3.644-7.1 3.644-0.32 0-0.638-0.018-0.954-0.051l3.474-3.447c0.207-0.205 0.323-0.484 0.323-0.776v-3.094c0-0.29-0.115-0.568-0.32-0.773l-3.131-3.131c-0.205-0.205-0.483-0.32-0.773-0.32h-3.094c-0.292 0-0.571 0.117-0.777 0.323l-3.447 3.474c-0.034-0.315-0.051-0.634-0.051-0.954 0-2.849 1.328-5.437 3.644-7.1 2.322-1.668 5.202-2.103 7.902-1.194 0.393 0.133 0.829 0.031 1.122-0.263 0.060-0.060 21.634-21.634 21.649-21.649 0.294-0.294 0.396-0.728 0.263-1.122-0.91-2.7-0.476-5.579 1.191-7.899 1.665-2.317 4.253-3.646 7.102-3.646 0.33 0 0.658 0.018 0.982 0.054l-3.402 3.453c-0.202 0.205-0.314 0.48-0.314 0.767v3.094c0 0.284 0.11 0.556 0.307 0.76l3.022 3.131c0.206 0.214 0.49 0.334 0.787 0.334h3.094c0.291 0 0.571-0.116 0.776-0.323l3.447-3.473c0.034 0.315 0.051 0.634 0.051 0.954 0 4.824-3.925 8.75-8.75 8.75z"></path>
<path d="M34.124 20.382l-13.687 13.687c-0.427 0.427-0.427 1.119 0 1.547s1.12 0.427 1.547 0l13.687-13.687c0.427-0.427 0.427-1.119 0-1.547s-1.12-0.427-1.547 0z"></path>
<path d="M47.945 49.438c0.427 0.426 1.12 0.426 1.547-0.003s0.425-1.12-0.003-1.547l-9.859-9.827c-0.428-0.426-1.121-0.425-1.547 0.003s-0.426 1.12 0.002 1.547l9.859 9.827z"></path>
</svg>
