<!-- Generated by IcoMoon.io -->
<svg version="1.1" xmlns="http://www.w3.org/2000/svg" width="56" height="56" viewBox="0 0 56 56">
<title>transport</title>
<path d="M53.858 22.436l-1.221-1.292-4.284-11.547c-0.73-1.95-2.597-3.243-4.679-3.255h-30.597c-2.082 0-3.949 1.304-4.679 3.255l-4.224 11.403-1.759 1.627c-1.532 1.304-2.417 3.219-2.417 5.229v16.824c0.012 2.752 2.25 4.978 5.002 4.978h3.159c2.752 0 4.99-2.226 5.002-4.978v-2.441h29.675v2.441c0.012 2.752 2.25 4.978 5.002 4.978h3.159c2.752 0 4.99-2.226 5.002-4.978v-17.267c-0.012-1.879-0.778-3.674-2.142-4.978zM10.65 10.41c0.383-1.017 1.352-1.675 2.429-1.675h30.609c1.077 0 2.046 0.67 2.429 1.675l3.733 10.051h-2.788c-0.658-4.487-4.834-7.586-9.321-6.916-3.578 0.526-6.39 3.339-6.916 6.916h-23.908l3.733-10.051zM44.621 20.461h-11.379c0.658-3.147 3.745-5.157 6.892-4.499 2.25 0.479 4.009 2.238 4.487 4.499zM10.769 44.68c-0.012 1.436-1.173 2.585-2.609 2.585h-3.159c-1.436 0-2.597-1.149-2.609-2.585v-3.135c0.718 0.467 1.663 0.694 2.609 0.694h5.768v2.441zM53.607 44.68c-0.012 1.436-1.173 2.585-2.608 2.585h-3.159c-1.436 0-2.597-1.161-2.608-2.585v-2.441h5.768c0.945 0 1.891-0.227 2.608-0.694v3.135zM50.998 39.846h-45.997c-1.424 0.012-2.597-1.125-2.609-2.561v-9.429c0-1.316 0.586-2.573 1.591-3.422 0.012-0.012 0.036-0.036 0.048-0.048l1.627-1.532h45.315l1.149 1.232c0.012 0.024 0.048 0.036 0.060 0.060 0.897 0.85 1.412 2.034 1.412 3.267v9.872h0.012c-0.012 1.424-1.185 2.573-2.608 2.561z"></path>
<path d="M15.795 27.641h-8.974c-0.658 0-1.197 0.539-1.197 1.197v6.222c0 0.658 0.538 1.197 1.197 1.197h8.974c0.658 0 1.197-0.539 1.197-1.197v-6.222c0-0.658-0.538-1.197-1.197-1.197zM14.598 33.863h-6.581v-3.829h6.581v3.829z"></path>
<path d="M49.179 27.641h-8.974c-0.658 0-1.197 0.539-1.197 1.197v6.222c0 0.658 0.539 1.197 1.197 1.197h8.974c0.658 0 1.197-0.539 1.197-1.197v-6.222c0-0.658-0.539-1.197-1.197-1.197zM47.983 33.863h-6.581v-3.829h6.581v3.829z"></path>
<path d="M33.779 32.666h-11.559c-0.658 0-1.197 0.539-1.197 1.197s0.539 1.197 1.197 1.197h11.559c0.658 0 1.197-0.539 1.197-1.197s-0.539-1.197-1.197-1.197z"></path>
<path d="M33.779 28.957h-11.559c-0.658 0-1.197 0.539-1.197 1.197s0.539 1.197 1.197 1.197h11.559c0.658 0 1.197-0.539 1.197-1.197s-0.539-1.197-1.197-1.197z"></path>
</svg>
