<!-- Generated by IcoMoon.io -->
<svg version="1.1" xmlns="http://www.w3.org/2000/svg" width="56" height="56" viewBox="0 0 56 56">
<title>utilities</title>
<path d="M53.688 0h-51.376c-0.789 0-1.434 0.645-1.434 1.434s0.645 1.434 1.434 1.434h3.094v51.663c0 0.526 0.287 1.016 0.753 1.267s1.028 0.227 1.47-0.072l6.225-4.146 6.249 4.158c0.478 0.323 1.111 0.323 1.589 0l6.225-4.146 6.249 4.158c0.478 0.323 1.111 0.323 1.589 0l6.225-4.146 6.249 4.158c0.239 0.155 0.514 0.239 0.788 0.239 0.227 0 0.466-0.060 0.681-0.167 0.466-0.251 0.753-0.741 0.753-1.267l-0.024-51.663h3.262c0.788 0 1.434-0.645 1.434-1.434s-0.645-1.47-1.434-1.47zM47.595 51.854l-4.815-3.202c-0.478-0.323-1.111-0.323-1.589 0l-6.225 4.158-6.249-4.158c-0.478-0.323-1.111-0.323-1.589 0l-6.225 4.146-6.249-4.146c-0.478-0.323-1.111-0.323-1.589 0l-4.791 3.19v-48.987h39.309l0.012 48.999z"></path>
<path d="M14.869 22.892h15.019c0.789 0 1.434-0.645 1.434-1.434s-0.645-1.434-1.434-1.434h-15.019c-0.789 0-1.434 0.645-1.434 1.434s0.633 1.434 1.434 1.434z"></path>
<path d="M14.869 27.875h11.255c0.789 0 1.434-0.645 1.434-1.434s-0.645-1.434-1.434-1.434h-11.255c-0.789 0-1.434 0.645-1.434 1.434s0.633 1.434 1.434 1.434z"></path>
<path d="M37.391 22.892h3.752c0.789 0 1.434-0.645 1.434-1.434s-0.645-1.434-1.434-1.434h-3.752c-0.789 0-1.434 0.645-1.434 1.434s0.633 1.434 1.434 1.434z"></path>
<path d="M37.391 27.875h3.752c0.789 0 1.434-0.645 1.434-1.434s-0.645-1.434-1.434-1.434h-3.752c-0.789 0-1.434 0.645-1.434 1.434s0.633 1.434 1.434 1.434z"></path>
<path d="M14.869 11.386h15.019c0.789 0 1.434-0.645 1.434-1.434s-0.645-1.434-1.434-1.434h-15.019c-0.789 0-1.434 0.645-1.434 1.434s0.633 1.434 1.434 1.434z"></path>
<path d="M14.869 16.357h11.255c0.789 0 1.434-0.645 1.434-1.434s-0.645-1.434-1.434-1.434h-11.255c-0.789 0-1.434 0.645-1.434 1.434s0.633 1.434 1.434 1.434z"></path>
<path d="M37.391 11.386h3.752c0.789 0 1.434-0.645 1.434-1.434s-0.645-1.434-1.434-1.434h-3.752c-0.789 0-1.434 0.645-1.434 1.434s0.633 1.434 1.434 1.434z"></path>
<path d="M37.391 16.357h3.752c0.789 0 1.434-0.645 1.434-1.434s-0.645-1.434-1.434-1.434h-3.752c-0.789 0-1.434 0.645-1.434 1.434s0.633 1.434 1.434 1.434z"></path>
<path d="M14.869 34.541h15.019c0.789 0 1.434-0.645 1.434-1.434s-0.645-1.434-1.434-1.434h-15.019c-0.789 0-1.434 0.645-1.434 1.434s0.633 1.434 1.434 1.434z"></path>
<path d="M14.869 39.512h11.255c0.789 0 1.434-0.645 1.434-1.434s-0.645-1.434-1.434-1.434h-11.255c-0.789 0-1.434 0.645-1.434 1.434s0.633 1.434 1.434 1.434z"></path>
<path d="M37.391 34.541h3.752c0.789 0 1.434-0.645 1.434-1.434s-0.645-1.434-1.434-1.434h-3.752c-0.789 0-1.434 0.645-1.434 1.434s0.633 1.434 1.434 1.434z"></path>
<path d="M37.391 39.512h3.752c0.789 0 1.434-0.645 1.434-1.434s-0.645-1.434-1.434-1.434h-3.752c-0.789 0-1.434 0.645-1.434 1.434s0.633 1.434 1.434 1.434z"></path>
</svg>
